<?xml version="1.0" encoding="UTF-8"?>
<svg id="Ebene_1" data-name="Ebene 1" xmlns="http://www.w3.org/2000/svg" viewBox="0 0 200.66 76.29">
  <defs>
    <style>
      .cls-1 {
        fill: #421737;
        stroke-width: 0px;
      }
    </style>
  </defs>
  <path class="cls-1" d="M200.41,76.29H0c.71-6.04,1.41-12.09,2.12-18.13.39-3.36.78-6.71,1.17-10.07.45-3.82.12-7.24-.54-11.03-.46-2.57-.75-5.09-.75-7.6,0-2.29.24-4.58.83-6.91.34-1.32.71-2.66,1.41-3.84,1.21-2.03,3.87-3.87,5.65-5.43,2.61-2.3,5.23-4.6,7.84-6.9.77-.68,1.56-1.37,2.45-1.88.88-.5,1.8-.5,2.69-.87,1.8-.76,3.31-2.04,5.25-2.67,1.54-.5,3.14-.85,4.76-.95,1.64-.1,3.16.66,4.68,1.22,2.36.88,4.79,1.77,7.03,2.92,1.96,1,3.38,2.56,4.84,4.16,3.38,3.71,7.17,7.27,11.67,9.5,2.93,1.46,5.72,3.16,8.6,4.71,2.83,1.51,5.71,2.2,8.58,3.51,7.55,3.41,15.38,6.18,23.4,8.27,8.5,2.21,17.18,3.65,25.87,4.92,8.6,1.25,17.13,2.91,25.72,4.27,7.1,1.12,14.22,2.12,21.34,3.11,3.28.45,6.65,1.14,9.95,1.22,3.09.08,5.5.76,7.81,3.05,2.04,2.02,3.4,4.61,4.55,7.23,1.5,3.42,2.7,6.97,3.42,10.63.51,2.6.32,5.04.07,7.56Z"/>
</svg>